# xmcd
#
# Track frame offsets:
#	150
#	16302
#	34768
#	52209
#	70727
#	86172
#	103502
#	120027
#	136998
#	153675
#	173138
#	191990
#	206765
#
# Disc length: 3030 seconds
#
# Revision: 1
# Processed by: cddbd v1.5.2PL0 Copyright (c) Steve Scherf et al.
# Submitted via: audiograbber 1.83.01
#
DISCID=b50bd40d
DTITLE=Swift, Taylor - 1989
DYEAR=2015
DGENRE=Karaoke CD+G
TTITLE0=Welcome To New York
TTITLE1=Blank Space
TTITLE2=Style
TTITLE3=Out Of The Woods
TTITLE4=All You Had To Do Was Stay
TTITLE5=Shake It Off
TTITLE6=I Wish You Would
TTITLE7=Bad Blood
TTITLE8=Wildest Dreams
TTITLE9=How You Get The Girl
TTITLE10=This Love
TTITLE11=I Know Places
TTITLE12=Clean
EXTD=Karaoke w Onscreen Graphics
EXTT0=
EXTT1=
EXTT2=
EXTT3=
EXTT4=
EXTT5=
EXTT6=
EXTT7=
EXTT8=
EXTT9=
EXTT10=
EXTT11=
EXTT12=
PLAYORDER=
